<?xml version="1.0" encoding="UTF-8" standalone="no"?>
<!DOCTYPE svg PUBLIC "-//W3C//DTD SVG 1.1//EN" "http://www.w3.org/Graphics/SVG/1.1/DTD/svg11.dtd">
<svg version="1.1" xmlns="http://www.w3.org/2000/svg" xmlns:xlink="http://www.w3.org/1999/xlink" preserveAspectRatio="xMidYMid meet" viewBox="0 0 600 338" width="600" height="338"><defs><path d="M172.82 5.83L173.23 5.87L173.63 5.93L174.04 6L174.44 6.09L174.84 6.19L175.24 6.32L175.63 6.45L176.01 6.6L176.4 6.77L176.78 6.95L177.15 7.14L177.52 7.35L177.88 7.58L178.24 7.82L178.59 8.07L178.94 8.34L179.27 8.62L179.61 8.91L179.93 9.22L180.25 9.54L180.4 9.48L180.55 9.41L180.7 9.34L180.84 9.28L180.98 9.21L181.12 9.15L181.25 9.09L181.38 9.02L181.51 8.96L181.63 8.9L181.75 8.84L181.87 8.78L181.98 8.72L182.1 8.66L182.21 8.6L182.31 8.55L182.42 8.49L182.52 8.44L182.62 8.39L182.72 8.34L182.82 8.29L182.91 8.25L183.01 8.2L183.1 8.16L183.19 8.12L183.28 8.08L183.36 8.04L183.45 8.01L183.53 7.97L183.62 7.94L183.7 7.92L183.78 7.89L183.86 7.87L183.94 7.85L184.02 7.83L184.1 7.82L184.18 7.81L184.26 7.8L184.34 7.8L184.42 7.79L185.33 7.82L186.21 7.91L187.04 8.05L187.84 8.24L188.59 8.48L189.31 8.77L189.99 9.11L190.63 9.48L191.24 9.9L191.81 10.36L192.35 10.85L192.86 11.38L193.34 11.94L193.78 12.52L194.2 13.14L194.59 13.77L194.95 14.43L195.29 15.11L195.6 15.81L195.88 16.53L196.14 17.25L196.38 17.99L196.6 18.73L196.8 19.49L196.98 20.24L197.14 21L197.28 21.76L197.4 22.51L197.51 23.26L197.61 24L197.69 24.73L197.76 25.45L197.82 26.16L197.86 26.84L197.9 27.51L197.93 28.16L197.95 28.79L197.96 29.38L197.97 29.95L197.97 30.49L198.05 31.67L198.12 32.85L198.2 34.02L198.28 35.18L198.36 36.35L198.43 37.51L198.51 38.67L198.58 39.83L198.66 40.99L198.73 42.14L198.81 43.3L198.88 44.45L198.95 45.6L199.02 46.75L199.08 47.9L199.15 49.05L199.22 50.19L199.28 51.34L199.34 52.49L199.4 53.63L199.46 54.78L199.51 55.92L199.57 57.07L199.62 58.22L199.67 59.36L199.71 60.51L199.76 61.66L199.8 62.81L199.84 63.96L199.87 65.12L199.91 66.27L199.94 67.43L199.96 68.59L199.99 69.75L200.01 70.91L200.02 72.08L200.04 73.25L200.04 74.42L200.05 75.59L200.05 76.77L208.19 76.71L216.32 76.65L224.46 76.59L232.61 76.54L240.75 76.49L248.9 76.44L257.05 76.38L265.21 76.32L273.37 76.25L281.53 76.18L289.69 76.1L297.85 76.01L306.01 75.9L314.18 75.78L322.35 75.65L330.52 75.5L338.69 75.33L346.85 75.14L355.02 74.93L363.19 74.69L371.36 74.44L379.53 74.15L387.7 73.84L395.87 73.5L404.04 73.13L412.21 72.72L420.37 72.28L428.54 71.81L436.7 71.3L444.86 70.75L453.02 70.16L461.18 69.53L469.33 68.86L477.49 68.14L485.64 67.37L493.78 66.56L501.93 65.7L510.07 64.78L518.2 63.82L526.34 62.8L526.73 62.74L527.13 62.69L527.52 62.65L527.93 62.61L528.33 62.59L528.73 62.58L529.14 62.58L529.55 62.59L529.95 62.61L530.36 62.63L530.76 62.67L531.17 62.72L531.57 62.78L531.97 62.84L532.37 62.92L532.76 63.01L533.15 63.1L533.53 63.21L533.91 63.33L534.29 63.45L534.65 63.59L535.02 63.73L535.37 63.89L535.72 64.06L536.06 64.23L536.39 64.42L536.71 64.61L537.03 64.82L537.33 65.03L537.62 65.25L537.91 65.49L538.18 65.73L538.44 65.99L538.69 66.25L538.92 66.52L539.14 66.81L539.35 67.1L539.54 67.4L539.72 67.71L539.89 68.04L539.97 68.04L540.05 68.04L540.14 68.04L540.23 68.04L540.32 68.04L540.42 68.04L540.52 68.04L540.62 68.04L540.73 68.05L540.83 68.05L540.94 68.05L541.05 68.06L541.16 68.07L541.28 68.07L541.39 68.08L541.51 68.09L541.62 68.1L541.74 68.12L541.86 68.13L541.97 68.15L542.09 68.16L542.21 68.18L542.32 68.2L542.44 68.23L542.56 68.25L542.67 68.28L542.78 68.31L542.89 68.34L543 68.37L543.11 68.41L543.22 68.44L543.32 68.48L543.43 68.53L543.53 68.57L543.62 68.62L543.72 68.67L543.81 68.73L543.89 68.79L543.98 68.85L544.06 68.91L544.76 69.37L545.46 69.83L546.15 70.3L546.84 70.77L547.53 71.24L548.21 71.72L548.89 72.19L549.57 72.67L550.24 73.16L550.92 73.64L551.58 74.13L552.25 74.62L552.91 75.12L553.57 75.61L554.23 76.11L554.88 76.61L555.54 77.11L556.19 77.61L556.83 78.12L557.48 78.62L558.12 79.13L558.77 79.64L559.41 80.15L560.04 80.66L560.68 81.18L561.32 81.69L561.95 82.21L562.59 82.73L563.22 83.25L563.85 83.77L564.48 84.29L565.11 84.81L565.74 85.33L566.36 85.85L566.99 86.37L567.62 86.9L568.24 87.42L568.87 87.94L569.49 88.47L570.12 88.99L570.74 89.45L571.35 89.92L571.96 90.39L572.56 90.87L573.16 91.36L573.75 91.84L574.33 92.34L574.91 92.83L575.48 93.33L576.05 93.83L576.61 94.34L577.17 94.84L577.73 95.35L578.29 95.86L578.84 96.37L579.39 96.88L579.94 97.39L580.49 97.9L581.04 98.41L581.59 98.92L582.13 99.43L582.68 99.93L583.23 100.44L583.78 100.93L584.33 101.43L584.88 101.92L585.44 102.41L586 102.89L586.56 103.37L587.12 103.85L587.69 104.31L588.27 104.78L588.84 105.23L589.43 105.68L590.01 106.12L590.61 106.55L591.21 106.98L591.82 107.39L592.43 107.8L593.05 108.2L593.51 108.53L593.93 108.86L594.32 109.19L594.69 109.53L595.02 109.87L595.33 110.21L595.6 110.55L595.85 110.89L596.08 111.24L596.28 111.58L596.45 111.93L596.6 112.27L596.72 112.61L596.82 112.95L596.9 113.29L596.96 113.63L596.99 113.97L597 114.3L596.99 114.64L596.96 114.96L596.91 115.29L596.85 115.61L596.76 115.93L596.66 116.24L596.53 116.55L596.4 116.86L596.24 117.16L596.07 117.45L595.89 117.74L595.69 118.02L595.48 118.3L595.25 118.56L595.02 118.82L594.77 119.08L594.51 119.32L594.23 119.56L593.95 119.79L593.66 120.01L593.36 120.22L593.05 120.42L593.13 122.91L593.22 125.39L593.3 127.87L593.39 130.35L593.48 132.83L593.56 135.3L593.65 137.77L593.74 140.24L593.82 142.7L593.9 145.17L593.98 147.63L594.05 150.09L594.11 152.55L594.17 155.01L594.23 157.47L594.27 159.93L594.31 162.38L594.33 164.84L594.35 167.29L594.36 169.75L594.35 172.21L594.33 174.66L594.3 177.12L594.25 179.57L594.19 182.03L594.12 184.49L594.02 186.95L593.91 189.41L593.79 191.87L593.64 194.33L593.47 196.8L593.29 199.26L593.08 201.73L592.85 204.2L592.6 206.68L592.32 209.15L592.02 211.63L591.7 214.11L591.35 216.59L590.97 219.08L590.86 219.78L590.7 220.46L590.48 221.11L590.22 221.72L589.9 222.31L589.54 222.87L589.14 223.39L588.7 223.89L588.22 224.36L587.71 224.79L587.17 225.2L586.6 225.58L586 225.92L585.38 226.24L584.74 226.52L584.08 226.78L583.41 227L582.72 227.19L582.03 227.35L581.33 227.48L580.62 227.58L579.91 227.65L579.21 227.69L578.51 227.69L577.82 227.66L577.13 227.61L576.46 227.52L575.8 227.4L575.17 227.24L574.55 227.06L573.96 226.84L573.39 226.59L572.85 226.31L572.34 226L571.87 225.66L571.43 225.28L571.04 224.87L570.69 224.43L570.38 223.95L570.12 223.44L569.08 223.44L561.41 224.02L553.72 224.57L546.02 225.1L538.31 225.59L530.59 226.07L522.85 226.51L515.1 226.93L507.35 227.33L499.58 227.7L491.81 228.04L484.02 228.36L476.23 228.65L468.44 228.92L460.64 229.17L452.83 229.38L445.02 229.58L437.2 229.75L429.39 229.89L421.57 230.01L413.75 230.1L405.94 230.17L398.12 230.22L390.3 230.24L382.49 230.23L374.68 230.21L366.87 230.15L359.07 230.08L351.27 229.98L343.48 229.85L335.7 229.71L327.93 229.53L320.16 229.34L312.4 229.12L304.66 228.88L296.92 228.61L289.2 228.32L281.48 228.01L273.78 227.68L266.1 227.32L258.43 226.94L259.7 229.1L260.86 231.28L261.91 233.48L262.85 235.68L263.69 237.9L264.42 240.13L265.07 242.37L265.62 244.61L266.08 246.88L266.46 249.15L266.76 251.43L266.98 253.72L267.12 256.01L267.2 258.32L267.21 260.64L267.15 262.96L267.04 265.3L266.87 267.64L266.65 269.98L266.38 272.34L266.06 274.7L265.71 277.06L265.31 279.44L264.88 281.82L264.43 284.2L263.94 286.59L263.43 288.98L262.9 291.38L262.36 293.78L261.8 296.18L261.23 298.59L260.66 301L260.09 303.42L259.52 305.83L258.96 308.25L258.4 310.67L257.86 313.09L257.33 315.51L256.83 317.93L256.34 320.36L256.26 320.74L256.16 321.12L256.06 321.48L255.94 321.82L255.81 322.16L255.68 322.48L255.53 322.79L255.37 323.09L255.2 323.37L255.03 323.64L254.84 323.9L254.65 324.15L254.44 324.39L254.24 324.61L254.02 324.82L253.79 325.02L253.56 325.21L253.32 325.39L253.08 325.55L252.83 325.7L252.57 325.85L252.31 325.98L252.04 326.09L251.77 326.2L251.49 326.3L251.21 326.38L250.92 326.46L250.63 326.52L250.34 326.58L250.04 326.62L249.74 326.65L249.44 326.67L249.13 326.68L248.83 326.68L248.52 326.67L248.21 326.65L247.9 326.62L247.59 326.58L247.27 326.53L246.96 326.47L246.95 326.86L246.92 327.24L246.86 327.61L246.78 327.98L246.68 328.34L246.56 328.69L246.43 329.02L246.27 329.35L246.1 329.67L245.9 329.97L245.7 330.26L245.47 330.54L245.23 330.81L244.98 331.06L244.71 331.3L244.43 331.52L244.13 331.73L243.83 331.92L243.51 332.09L243.18 332.25L242.85 332.39L242.5 332.51L242.15 332.61L241.78 332.69L241.41 332.75L241.04 332.79L240.66 332.81L240.27 332.8L239.88 332.78L239.49 332.73L239.09 332.66L238.69 332.56L238.29 332.44L237.89 332.29L237.49 332.11L237.08 331.91L236.68 331.68L236.29 331.43L235.89 331.15L235.5 330.83L230.71 327.01L225.87 323.25L221 319.55L216.09 315.93L211.14 312.36L206.16 308.85L201.14 305.4L196.09 302L191.01 298.65L185.9 295.35L180.76 292.09L175.59 288.88L170.4 285.71L165.19 282.57L159.95 279.47L154.69 276.39L149.41 273.35L144.11 270.34L138.8 267.34L133.47 264.37L128.13 261.42L122.77 258.48L117.41 255.55L112.03 252.63L106.65 249.72L101.26 246.82L95.87 243.92L90.47 241.01L85.07 238.1L79.67 235.19L74.27 232.27L68.87 229.33L63.48 226.38L58.09 223.42L52.71 220.43L47.34 217.42L41.98 214.39L36.63 211.33L31.29 208.24L25.97 205.11L25.44 204.77L24.95 204.41L24.5 204.03L24.09 203.63L23.71 203.22L23.37 202.79L23.07 202.35L22.81 201.89L22.58 201.42L22.38 200.95L22.22 200.47L22.1 199.98L22.01 199.49L21.96 198.99L21.94 198.49L21.95 198L21.99 197.51L22.07 197.01L22.18 196.53L22.32 196.05L22.49 195.58L22.69 195.12L22.93 194.67L23.19 194.23L23.48 193.81L23.81 193.41L24.16 193.02L24.54 192.65L24.95 192.3L25.38 191.97L25.84 191.67L26.33 191.39L26.85 191.14L27.39 190.92L27.96 190.73L28.56 190.57L29.18 190.44L29.82 190.34L30.49 190.29L31.18 190.27L30.33 188.69L29.5 187.11L28.68 185.52L27.89 183.93L27.11 182.33L26.34 180.73L25.59 179.12L24.86 177.51L24.14 175.89L23.43 174.27L22.73 172.64L22.04 171.01L21.36 169.37L20.7 167.74L20.04 166.1L19.39 164.45L18.74 162.81L18.11 161.16L17.47 159.51L16.85 157.85L16.22 156.2L15.6 154.54L14.98 152.89L14.37 151.23L13.75 149.57L13.14 147.91L12.52 146.25L11.9 144.6L11.28 142.94L10.66 141.28L10.03 139.62L9.4 137.97L8.76 136.31L8.12 134.66L7.46 133.01L6.81 131.36L6.14 129.71L5.46 128.07L4.77 126.43L4.08 124.79L4 124.59L3.93 124.39L3.86 124.2L3.8 124L3.74 123.81L3.68 123.61L3.63 123.42L3.58 123.22L3.54 123.03L3.51 122.84L3.47 122.64L3.45 122.45L3.43 122.26L3.41 122.07L3.4 121.89L3.39 121.7L3.39 121.51L3.4 121.33L3.41 121.15L3.42 120.97L3.45 120.79L3.48 120.61L3.51 120.43L3.55 120.26L3.6 120.09L3.65 119.92L3.71 119.75L3.78 119.59L3.85 119.42L3.93 119.26L4.02 119.1L4.11 118.95L4.21 118.79L4.32 118.64L4.43 118.5L4.55 118.35L4.68 118.21L4.82 118.07L4.96 117.93L5.12 117.8L4.89 117.6L4.67 117.38L4.47 117.16L4.28 116.92L4.1 116.67L3.93 116.41L3.78 116.14L3.64 115.87L3.52 115.58L3.41 115.29L3.31 114.99L3.23 114.69L3.17 114.38L3.12 114.07L3.08 113.75L3.06 113.43L3.06 113.11L3.08 112.78L3.11 112.45L3.16 112.13L3.23 111.8L3.31 111.47L3.42 111.15L3.54 110.82L3.68 110.5L3.84 110.19L4.02 109.87L4.22 109.56L4.44 109.26L4.68 108.96L4.94 108.67L5.22 108.39L5.52 108.11L5.84 107.84L6.19 107.58L6.55 107.34L6.94 107.1L7.35 106.87L7.79 106.66L8.24 106.45L12.76 104.6L17.24 102.72L21.67 100.81L26.08 98.86L30.44 96.88L34.77 94.87L39.06 92.83L43.32 90.75L47.54 88.64L51.73 86.51L55.89 84.34L60.01 82.14L64.1 79.91L68.17 77.65L72.19 75.36L76.19 73.04L80.16 70.69L84.1 68.31L88.02 65.89L91.9 63.45L95.76 60.98L99.59 58.48L103.39 55.95L107.17 53.4L110.92 50.81L114.65 48.2L118.35 45.55L122.03 42.88L125.69 40.18L129.33 37.45L132.94 34.7L136.54 31.91L140.11 29.1L143.67 26.26L147.2 23.4L150.72 20.5L154.22 17.59L157.7 14.64L161.16 11.67L164.61 8.67L165 8.35L165.4 8.05L165.8 7.77L166.2 7.51L166.61 7.27L167.02 7.05L167.43 6.85L167.84 6.66L168.25 6.5L168.67 6.35L169.08 6.22L169.5 6.11L169.91 6.01L170.33 5.93L170.75 5.87L171.16 5.83L171.58 5.81L171.99 5.8L172.41 5.81L172.82 5.83ZM540.91 83.44L540.88 85.46L540.84 87.48L540.78 89.5L540.72 91.51L540.65 93.52L540.56 95.53L540.47 97.54L540.36 99.55L540.24 101.55L540.11 103.56L539.97 105.56L539.82 107.56L539.66 109.56L539.49 111.56L539.31 113.55L539.12 115.55L538.92 117.55L538.71 119.55L538.49 121.54L538.26 123.54L538.03 125.54L537.78 127.54L537.52 129.54L537.25 131.54L536.98 133.54L536.69 135.54L536.39 137.54L536.09 139.55L535.78 141.55L535.46 143.56L535.13 145.57L534.79 147.58L534.44 149.6L534.09 151.61L533.73 153.63L533.36 155.65L532.98 157.68L532.59 159.71L532.51 159.97L532.41 160.22L532.3 160.46L532.19 160.7L532.06 160.94L531.92 161.16L531.77 161.38L531.61 161.59L531.45 161.8L531.27 162L531.09 162.19L530.89 162.38L530.69 162.56L530.48 162.73L530.26 162.9L530.04 163.06L529.81 163.21L529.57 163.36L529.32 163.5L529.07 163.64L528.81 163.77L528.55 163.89L528.28 164L528.01 164.11L527.73 164.21L527.45 164.31L527.17 164.39L526.88 164.48L526.58 164.55L526.29 164.62L525.99 164.68L525.68 164.74L525.38 164.79L525.07 164.83L524.77 164.87L524.46 164.89L524.14 164.92L523.83 164.93L523.52 164.94L523.21 164.95L523.13 165.08L523.05 165.2L522.97 165.33L522.89 165.44L522.81 165.56L522.73 165.67L522.65 165.78L522.57 165.89L522.48 165.99L522.39 166.09L522.3 166.19L522.21 166.28L522.12 166.37L522.02 166.46L521.92 166.54L521.82 166.62L521.72 166.7L521.61 166.77L521.5 166.84L521.38 166.91L521.26 166.98L521.14 167.04L521.01 167.09L520.88 167.15L520.74 167.2L520.6 167.25L520.46 167.29L520.3 167.33L520.15 167.37L519.98 167.4L519.81 167.43L519.64 167.46L519.46 167.49L519.27 167.51L519.07 167.53L518.87 167.54L518.66 167.55L518.45 167.56L518.23 167.56L518 167.57L510.52 168.19L502.97 168.87L495.33 169.61L487.62 170.4L479.83 171.23L471.98 172.1L464.06 172.99L456.09 173.9L448.07 174.83L439.99 175.76L431.87 176.7L423.72 177.63L415.52 178.55L407.3 179.45L399.05 180.32L390.78 181.16L382.5 181.96L374.2 182.71L365.9 183.41L357.59 184.05L349.28 184.62L340.99 185.11L332.7 185.53L324.43 185.86L316.18 186.09L307.95 186.23L299.75 186.25L291.59 186.16L283.47 185.95L275.38 185.61L267.35 185.14L259.37 184.52L251.45 183.76L243.59 182.84L235.79 181.76L228.07 180.51L220.42 179.08L212.85 177.47L205.36 175.67L197.97 173.68L198.12 174.59L198.28 175.5L198.44 176.41L198.59 177.32L198.75 178.22L198.91 179.13L199.06 180.02L199.22 180.92L199.38 181.82L199.53 182.71L199.69 183.6L199.84 184.49L200 185.38L200.16 186.27L200.31 187.15L200.47 188.04L200.63 188.92L200.78 189.81L200.94 190.69L201.25 192.46L201.41 193.34L201.56 194.23L201.72 195.11L201.88 196L202.03 196.89L202.19 197.77L202.35 198.66L202.5 199.55L202.66 200.44L202.82 201.34L202.97 202.23L203.13 203.13L203.28 204.03L203.44 204.93L203.6 205.83L203.75 206.74L203.91 207.65L204.07 208.56L204.22 209.47L204.31 210L204.4 210.55L204.51 211.1L204.62 211.67L204.74 212.25L204.87 212.84L205.01 213.43L205.15 214.04L205.29 214.66L205.44 215.29L205.6 215.92L205.75 216.56L205.91 217.21L206.06 217.87L206.22 218.53L206.37 219.2L206.53 219.87L206.67 220.55L206.82 221.23L206.96 221.92L207.09 222.6L207.22 223.3L207.34 223.99L207.45 224.69L207.55 225.38L207.64 226.08L207.72 226.78L207.79 227.48L207.85 228.18L207.89 228.87L207.91 229.57L207.93 230.26L207.92 230.95L207.9 231.64L207.86 232.32L207.8 233L207.72 233.67L207.62 234.34L207.49 235.01L207.35 235.67L207.5 236L207.62 236.33L207.73 236.66L207.82 237L207.89 237.33L207.94 237.67L207.98 238.01L207.99 238.34L207.99 238.68L207.97 239.01L207.93 239.34L207.88 239.67L207.8 239.99L207.71 240.31L207.61 240.62L207.48 240.93L207.34 241.24L207.19 241.53L207.02 241.82L206.83 242.1L206.63 242.38L206.41 242.64L206.17 242.9L205.92 243.15L205.66 243.38L205.38 243.61L205.09 243.82L204.78 244.02L204.46 244.21L204.12 244.38L203.78 244.54L203.41 244.69L203.04 244.82L202.65 244.94L202.25 245.04L201.83 245.12L201.41 245.18L200.97 245.23L200.52 245.26L200.05 245.27L199.74 245.39L199.42 245.51L199.1 245.62L198.77 245.72L198.45 245.8L198.12 245.88L197.78 245.95L197.45 246.01L197.12 246.06L196.78 246.1L196.44 246.13L196.1 246.16L195.76 246.17L195.43 246.18L195.09 246.17L194.75 246.16L194.41 246.14L194.08 246.11L193.74 246.08L193.41 246.03L193.08 245.98L192.75 245.92L192.42 245.85L192.1 245.77L191.78 245.69L191.46 245.59L191.15 245.49L190.84 245.39L190.53 245.27L190.23 245.15L189.94 245.02L189.64 244.88L189.36 244.73L189.08 244.58L188.81 244.42L188.54 244.26L188.28 244.08L188.03 243.9L187.78 243.72L187.54 243.52L186.5 242.65L183.37 242.65L183.06 242.64L182.76 242.63L182.47 242.61L182.19 242.57L181.91 242.53L181.64 242.48L181.38 242.42L181.13 242.36L180.89 242.28L180.65 242.2L180.43 242.11L180.21 242.01L180 241.91L179.81 241.8L179.62 241.68L179.44 241.56L179.27 241.43L179.11 241.3L178.95 241.16L178.81 241.01L178.68 240.86L178.56 240.71L178.45 240.55L178.34 240.39L178.25 240.22L178.17 240.05L178.1 239.87L178.04 239.7L177.99 239.52L177.95 239.33L177.92 239.15L177.9 238.96L177.9 238.77L177.9 238.58L177.92 238.39L177.94 238.19L177.98 238L178.03 237.8L178.09 237.61L178.16 237.41L174.33 235.88L170.49 234.3L166.64 232.66L162.79 230.98L158.94 229.25L155.08 227.48L151.23 225.66L147.38 223.79L143.53 221.88L139.69 219.94L135.85 217.95L132.02 215.92L128.2 213.86L124.39 211.75L120.59 209.62L116.8 207.45L113.03 205.24L109.27 203.01L105.53 200.74L101.8 198.45L98.1 196.13L94.42 193.78L90.76 191.41L87.12 189.01L83.51 186.59L79.92 184.14L76.36 181.68L72.84 179.2L69.34 176.7L65.87 174.18L62.44 171.65L59.04 169.1L55.68 166.54L52.35 163.97L49.07 161.39L45.82 158.8L42.62 156.19L39.45 153.59L36.34 150.97L33.26 148.36L33.65 149.6L34.04 150.85L34.42 152.09L34.8 153.33L35.17 154.58L35.54 155.82L35.91 157.07L36.27 158.31L36.63 159.55L36.99 160.8L37.35 162.04L37.7 163.29L38.05 164.53L38.4 165.77L38.74 167.02L39.08 168.26L39.42 169.51L39.76 170.75L40.1 172L40.43 173.24L40.76 174.48L41.09 175.73L41.42 176.97L41.74 178.22L42.07 179.46L42.39 180.7L42.71 181.95L43.03 183.19L43.35 184.44L43.67 185.68L43.99 186.93L44.3 188.17L44.62 189.41L44.93 190.66L45.25 191.9L45.56 193.15L45.88 194.39L46.19 195.63L46.5 196.88L46.81 198.12L52.13 199.87L57.43 201.71L62.72 203.63L68 205.64L73.27 207.73L78.52 209.9L83.75 212.15L88.96 214.47L94.15 216.87L99.33 219.34L104.47 221.87L109.6 224.47L114.69 227.13L119.76 229.86L124.8 232.64L129.81 235.48L134.78 238.37L139.72 241.31L144.63 244.31L149.49 247.34L154.32 250.43L159.11 253.55L163.85 256.72L168.55 259.92L173.21 263.15L177.82 266.42L182.38 269.72L186.89 273.05L191.35 276.4L195.75 279.77L200.1 283.17L204.4 286.58L208.63 290.01L212.81 293.45L216.93 296.9L220.98 300.36L224.97 303.83L228.89 307.3L232.75 310.77L236.54 314.24L237.02 311.95L237.52 309.64L238.05 307.31L238.6 304.98L239.15 302.64L239.72 300.28L240.3 297.92L240.88 295.55L241.46 293.18L242.04 290.79L242.61 288.41L243.18 286.01L243.73 283.61L244.27 281.21L244.78 278.81L245.28 276.4L245.74 273.99L246.18 271.59L246.59 269.18L246.96 266.77L247.29 264.37L247.58 261.96L247.83 259.56L248.02 257.17L248.16 254.77L248.25 252.39L248.28 250.01L248.24 247.63L248.14 245.27L247.97 242.91L247.73 240.56L247.41 238.22L247.02 235.89L246.54 233.58L245.97 231.27L245.32 228.98L244.57 226.7L243.73 224.44L242.79 222.19L241.75 219.95L241.68 219.82L241.61 219.7L241.55 219.57L241.5 219.45L241.45 219.34L241.41 219.22L241.38 219.11L241.36 219L241.34 218.89L241.33 218.79L241.32 218.69L241.32 218.59L241.32 218.5L241.33 218.4L241.35 218.31L241.37 218.22L241.39 218.13L241.42 218.04L241.45 217.96L241.49 217.88L241.53 217.8L241.57 217.72L241.62 217.64L241.67 217.56L241.73 217.49L241.79 217.41L241.85 217.34L241.91 217.27L241.98 217.2L242.04 217.13L242.11 217.06L242.18 216.99L242.26 216.92L242.33 216.86L242.4 216.79L242.48 216.72L242.56 216.66L242.63 216.59L242.71 216.53L242.79 216.46L242.87 216.26L242.96 216.07L243.06 215.87L243.17 215.68L243.28 215.48L243.4 215.29L243.53 215.1L243.67 214.91L243.81 214.72L243.96 214.54L244.12 214.35L244.29 214.17L244.47 214L244.65 213.82L244.84 213.65L245.04 213.48L245.25 213.32L245.46 213.16L245.69 213.01L245.92 212.86L246.16 212.71L246.4 212.57L246.66 212.44L246.92 212.31L247.19 212.19L247.47 212.07L247.75 211.96L248.05 211.86L248.35 211.76L248.66 211.67L248.97 211.59L249.3 211.51L249.63 211.45L249.97 211.39L250.32 211.34L250.67 211.3L251.04 211.26L251.41 211.24L251.79 211.23L252.17 211.22L260 210.84L267.84 210.48L275.7 210.15L283.56 209.83L291.44 209.54L299.34 209.28L307.24 209.04L315.15 208.82L323.08 208.62L331.01 208.45L338.95 208.3L346.89 208.18L354.85 208.08L362.8 208L370.77 207.95L378.73 207.92L386.7 207.92L394.68 207.94L402.65 207.99L410.62 208.06L418.6 208.15L426.57 208.27L434.55 208.41L442.51 208.58L450.48 208.77L458.44 208.99L466.4 209.23L474.35 209.5L482.3 209.8L490.24 210.12L498.17 210.46L506.1 210.83L514.01 211.22L521.91 211.64L529.8 212.09L537.69 212.56L545.55 213.06L553.41 213.59L561.25 214.14L569.07 214.71L570.12 214.71L570.43 212.42L570.73 210.12L571.04 207.82L571.34 205.52L571.63 203.22L571.92 200.91L572.21 198.6L572.49 196.29L572.76 193.97L573.03 191.66L573.3 189.34L573.56 187.02L573.82 184.7L574.07 182.38L574.31 180.06L574.55 177.74L574.79 175.41L575.02 173.09L575.24 170.76L575.46 168.44L575.67 166.11L575.88 163.79L576.08 161.47L576.27 159.14L576.46 156.82L576.64 154.5L576.82 152.18L576.98 149.86L577.15 147.54L577.3 145.22L577.45 142.91L577.59 140.59L577.72 138.28L577.85 135.97L577.97 133.66L578.08 131.36L578.19 129.06L578.28 126.76L578.37 124.46L578.46 122.17L578.38 122.1L578.3 122.03L578.22 121.96L578.14 121.88L578.07 121.8L577.99 121.72L577.91 121.63L577.83 121.54L577.75 121.45L577.67 121.36L577.6 121.27L577.52 121.17L577.44 121.07L577.36 120.97L577.28 120.86L577.21 120.76L577.13 120.65L577.05 120.54L576.97 120.42L576.89 120.31L576.81 120.2L576.74 120.08L576.66 119.96L576.58 119.84L576.5 119.72L576.42 119.6L576.35 119.47L576.27 119.35L576.19 119.22L576.11 119.1L576.03 118.97L575.95 118.84L575.88 118.71L575.8 118.58L575.72 118.45L575.64 118.32L575.56 118.19L575.49 118.06L575.41 117.93L575.33 117.8L575.09 117.21L574.82 116.62L574.54 116.03L574.24 115.45L573.93 114.86L573.59 114.27L573.25 113.68L572.89 113.1L572.51 112.52L572.12 111.93L571.72 111.35L571.3 110.78L570.88 110.2L570.44 109.63L570 109.05L569.54 108.48L569.08 107.92L568.61 107.35L568.13 106.79L567.64 106.23L567.15 105.68L566.65 105.13L566.15 104.58L565.65 104.03L565.14 103.49L564.63 102.96L564.12 102.43L563.6 101.9L563.09 101.38L562.58 100.86L562.06 100.34L561.55 99.84L561.04 99.33L560.54 98.84L560.04 98.34L559.54 97.86L559.05 97.38L558.56 96.9L558.08 96.44L557.61 95.97L557.22 95.58L556.82 95.19L556.42 94.79L556.02 94.4L555.61 94.01L555.2 93.61L554.79 93.22L554.37 92.82L553.96 92.43L553.54 92.03L553.11 91.63L552.69 91.24L552.27 90.84L551.84 90.44L551.41 90.03L550.99 89.63L550.56 89.23L550.13 88.82L549.7 88.42L549.27 88.01L548.84 87.6L548.41 87.19L547.98 86.77L547.55 86.36L547.12 85.94L546.7 85.52L546.27 85.1L545.85 84.67L545.42 84.25L545 83.82L544.58 83.39L544.16 82.95L543.75 82.52L543.34 82.08L542.93 81.64L542.52 81.19L542.12 80.75L541.72 80.3L541.32 79.84L540.93 79.39L540.92 81.41L540.91 83.44ZM166.94 33.32L163.9 36.01L160.82 38.67L157.71 41.3L154.57 43.9L151.4 46.48L148.2 49.04L144.98 51.57L141.72 54.07L138.44 56.54L135.13 58.99L131.79 61.41L128.42 63.81L125.03 66.18L121.61 68.53L118.16 70.84L114.69 73.14L111.19 75.4L107.67 77.64L104.11 79.85L100.54 82.04L96.94 84.2L93.31 86.34L89.66 88.44L85.99 90.53L82.29 92.58L78.57 94.61L74.83 96.62L71.07 98.59L67.28 100.55L63.47 102.47L59.63 104.37L55.78 106.24L51.9 108.09L48.01 109.91L44.09 111.7L40.15 113.47L36.2 115.21L32.22 116.93L34.1 118.56L35.99 120.18L37.88 121.78L39.79 123.38L41.7 124.96L43.62 126.52L45.55 128.08L47.48 129.63L49.42 131.16L51.37 132.69L53.33 134.2L55.3 135.7L57.27 137.19L59.25 138.68L61.24 140.15L63.24 141.61L65.25 143.07L67.26 144.51L69.28 145.95L71.31 147.38L73.35 148.8L75.39 150.21L77.44 151.61L79.5 153.01L81.57 154.4L83.65 155.78L85.73 157.16L87.82 158.53L89.92 159.89L92.03 161.25L94.14 162.6L96.27 163.95L98.4 165.29L100.54 166.63L102.68 167.96L104.84 169.28L107 170.61L109.17 171.92L111.34 173.24L113.53 174.55L115.18 175.53L116.83 176.5L118.5 177.47L120.18 178.43L121.87 179.39L123.57 180.34L125.27 181.29L126.98 182.23L128.7 183.18L130.42 184.11L132.15 185.05L133.88 185.98L135.61 186.92L137.35 187.85L139.09 188.78L140.83 189.71L142.57 190.64L144.32 191.57L146.06 192.5L147.8 193.43L149.54 194.37L151.27 195.3L153.01 196.24L154.73 197.18L156.46 198.13L158.18 199.08L159.89 200.03L161.59 200.98L163.29 201.95L164.98 202.91L166.66 203.89L168.34 204.87L170 205.85L171.65 206.84L173.29 207.84L174.91 208.85L176.53 209.87L178.13 210.89L179.72 211.92L181.29 212.97L181.29 210.35L181.29 209.24L181.28 208.12L181.27 207.01L181.26 205.9L181.25 204.78L181.23 203.67L181.21 202.56L181.2 201.44L181.18 200.33L181.16 199.22L181.14 198.1L181.12 196.99L181.1 195.88L181.08 194.76L181.07 193.65L181.05 192.54L181.04 191.42L181.03 190.31L181.03 189.2L181.03 188.08L181.03 186.97L181.03 185.86L181.05 184.75L181.06 183.63L181.08 182.52L181.11 181.41L181.14 180.29L181.18 179.18L181.23 178.07L181.29 176.95L181.35 175.84L181.42 174.73L181.5 173.61L181.59 172.5L181.69 171.39L181.79 170.27L181.91 169.16L182.04 168.05L182.18 166.93L182.33 165.82L181.95 165.42L181.62 165L181.31 164.58L181.04 164.13L180.81 163.68L180.61 163.22L180.44 162.75L180.31 162.28L180.21 161.8L180.15 161.32L180.11 160.84L180.11 160.35L180.15 159.87L180.21 159.39L180.31 158.92L180.44 158.45L180.61 157.98L180.8 157.53L181.03 157.09L181.29 156.65L181.58 156.24L181.9 155.83L182.25 155.44L182.63 155.07L183.04 154.72L183.48 154.39L183.96 154.08L184.46 153.79L184.99 153.53L185.55 153.3L186.14 153.09L186.77 152.91L187.41 152.77L188.09 152.65L188.8 152.57L189.53 152.53L190.3 152.52L191.09 152.55L191.91 152.62L192.75 152.73L200.88 153.59L208.99 154.36L217.1 155.03L225.19 155.6L233.28 156.1L241.35 156.51L249.42 156.84L257.48 157.1L265.54 157.3L273.59 157.43L281.64 157.51L289.68 157.53L297.72 157.5L305.75 157.43L313.78 157.31L321.82 157.17L329.85 156.99L337.88 156.79L345.91 156.57L353.94 156.33L361.97 156.08L370.01 155.82L378.05 155.56L386.1 155.3L394.15 155.05L402.2 154.82L410.26 154.59L418.33 154.39L426.4 154.22L434.48 154.08L442.58 153.97L450.68 153.9L458.79 153.87L466.91 153.9L475.04 153.98L483.19 154.12L491.35 154.32L499.52 154.59L507.71 154.93L515.91 155.34L516.06 153.51L516.21 151.68L516.36 149.84L516.5 148.01L516.64 146.18L516.78 144.34L516.91 142.51L517.03 140.68L517.16 138.84L517.28 137.01L517.39 135.18L517.5 133.34L517.61 131.51L517.71 129.68L517.81 127.84L517.91 126.01L518 124.18L518.09 122.34L518.17 120.51L518.25 118.68L518.33 116.84L518.4 115.01L518.47 113.17L518.54 111.34L518.6 109.51L518.65 107.67L518.71 105.84L518.75 104.01L518.8 102.17L518.84 100.34L518.88 98.51L518.91 96.67L518.94 94.84L518.97 93.01L518.99 91.17L519 89.34L519.02 87.51L519.03 85.67L519.03 83.84L519.04 82.01L510.98 83.03L502.92 84L494.86 84.92L486.8 85.79L478.73 86.62L470.66 87.39L462.58 88.13L454.51 88.82L446.43 89.46L438.35 90.07L430.26 90.63L422.18 91.16L414.09 91.65L406 92.1L397.91 92.52L389.82 92.9L381.73 93.25L373.64 93.57L365.55 93.86L357.46 94.12L349.37 94.35L341.28 94.56L333.18 94.74L325.09 94.89L317 95.03L308.91 95.14L300.83 95.23L292.74 95.3L284.66 95.35L276.57 95.39L268.49 95.41L260.41 95.42L252.34 95.41L244.26 95.39L236.19 95.36L228.12 95.32L220.06 95.28L211.99 95.22L203.94 95.17L195.88 95.1L195.49 95.1L195.11 95.08L194.74 95.06L194.38 95.03L194.02 94.98L193.67 94.93L193.33 94.87L193 94.8L192.67 94.72L192.35 94.64L192.03 94.54L191.73 94.44L191.42 94.33L191.13 94.21L190.84 94.09L190.56 93.96L190.29 93.82L190.02 93.67L189.75 93.52L189.5 93.36L189.25 93.19L189 93.02L188.76 92.84L188.53 92.65L188.3 92.46L188.07 92.26L187.86 92.06L187.64 91.85L187.44 91.64L187.23 91.42L187.04 91.2L186.84 90.97L186.65 90.73L186.47 90.5L186.29 90.26L186.12 90.01L185.95 89.76L185.78 89.51L185.62 89.25L185.46 88.99L185.22 88.92L184.99 88.85L184.76 88.76L184.52 88.68L184.29 88.58L184.06 88.48L183.83 88.37L183.61 88.26L183.38 88.14L183.16 88.01L182.94 87.87L182.73 87.73L182.52 87.59L182.31 87.43L182.1 87.27L181.9 87.1L181.71 86.93L181.52 86.75L181.34 86.56L181.16 86.37L180.98 86.17L180.82 85.97L180.66 85.75L180.5 85.53L180.36 85.31L180.22 85.07L180.09 84.84L179.96 84.59L179.85 84.34L179.74 84.08L179.64 83.81L179.55 83.54L179.47 83.26L179.4 82.98L179.34 82.69L179.29 82.39L179.25 82.09L179.23 81.77L179.21 81.46L179.2 81.13L179.2 80.09L179.19 79.04L179.17 77.99L179.14 76.94L179.11 75.89L179.07 74.85L179.02 73.8L178.97 72.75L178.91 71.7L178.84 70.66L178.77 69.61L178.7 68.56L178.61 67.51L178.53 66.47L178.43 65.42L178.34 64.37L178.23 63.32L178.13 62.27L178.01 61.23L177.9 60.18L177.78 59.13L177.66 58.08L177.53 57.04L177.4 55.99L177.27 54.94L177.13 53.89L176.99 52.85L176.85 51.8L176.71 50.75L176.56 49.7L176.42 48.65L176.27 47.61L176.12 46.56L175.96 45.51L175.81 44.46L175.66 43.42L175.5 42.37L175.35 41.32L175.19 40.27L175.03 39.23L175.03 38.96L175.03 38.7L175.02 38.43L175 38.15L174.99 37.88L174.97 37.6L174.94 37.32L174.92 37.04L174.89 36.76L174.85 36.47L174.82 36.18L174.78 35.89L174.74 35.6L174.7 35.31L174.65 35.02L174.6 34.73L174.55 34.43L174.5 34.14L174.44 33.84L174.38 33.55L174.32 33.26L174.26 32.96L174.2 32.67L174.13 32.37L174.07 32.08L174 31.79L173.93 31.5L173.86 31.21L173.79 30.92L173.71 30.63L173.64 30.35L173.57 30.06L173.49 29.78L173.41 29.5L173.34 29.22L173.26 28.95L173.18 28.67L173.1 28.41L173.03 28.14L172.95 27.88L169.96 30.61L166.94 33.32Z" id="a2kh8RqkLw"></path></defs><g><g><g><use xlink:href="#a2kh8RqkLw" opacity="1" fill="#2980b9" fill-opacity="1"></use><g><use xlink:href="#a2kh8RqkLw" opacity="1" fill-opacity="0" stroke="#000000" stroke-width="1" stroke-opacity="0"></use></g></g></g></g></svg>