<?xml version="1.0"?>
<svg xmlns="http://www.w3.org/2000/svg" height="512px" viewBox="0 -30 512 512" width="512px"><path d="m326 387v-27h-140v27c0 19.300781-15.699219 35-35 35v30h210v-30c-19.300781 0-35-15.699219-35-35zm0 0" fill="#FFFFFF"/><path d="m0 0v330h512v-330zm195 60c8.285156 0 15 6.714844 15 15s-6.714844 15-15 15-15-6.714844-15-15 6.714844-15 15-15zm109 120v30h-214v-30zm-169-120c8.285156 0 15 6.714844 15 15s-6.714844 15-15 15-15-6.714844-15-15 6.714844-15 15-15zm-60 0c8.285156 0 15 6.714844 15 15s-6.714844 15-15 15-15-6.714844-15-15 6.714844-15 15-15zm-15 60h120v30h-120zm274 150h-264v-30h264zm90-60h-90v-30h90zm0 0" fill="#FFFFFF"/></svg>
