<?xml version="1.0" encoding="iso-8859-1"?>
<!-- Generator: Adobe Illustrator 19.0.0, SVG Export Plug-In . SVG Version: 6.00 Build 0)  -->
<svg xmlns="http://www.w3.org/2000/svg" xmlns:xlink="http://www.w3.org/1999/xlink" version="1.1" id="Capa_1" x="0px" y="0px" viewBox="0 0 512 512" style="enable-background:new 0 0 512 512;" xml:space="preserve" width="512px" height="512px">
<g>
	<g>
		<path d="M377.15,338.291c13.209,20.07,23.262,42.392,29.417,66.267H433v-66.267H377.15z" fill="#2980b9"/>
	</g>
</g>
<g>
	<g>
		<rect x="463" y="338.29" width="49" height="66.27" fill="#2980b9"/>
	</g>
</g>
<g>
	<g>
		<rect x="431" y="223.09" width="81" height="66.27" fill="#2980b9"/>
	</g>
</g>
<g>
	<g>
		<rect x="399" y="107.89" width="113" height="66.27" fill="#2980b9"/>
	</g>
</g>
<g>
	<g>
		<path d="M304.305,223.091c7.801-14.835,12.758-31.388,14.131-48.934H369V107.89h-63.335    c-20.788-41.905-64.026-70.782-113.888-70.782c-70.056,0-127.051,56.995-127.051,127.051c0,36.154,15.179,68.827,39.498,91.985    c13.139,12.512,28.948,22.243,46.471,28.247l26.356,47.495h29.454l26.355-47.494c17.523-6.004,33.332-15.735,46.471-28.248    c19.648,8.476,37.836,19.707,54.072,33.214H401v-66.267H304.305z" fill="#2980b9"/>
	</g>
</g>
<g>
	<g>
		<polygon points="203.14,361.886 180.415,361.886 156.856,474.891 226.698,474.891   " fill="#2980b9"/>
	</g>
</g>
<g>
	<g>
		<path d="M116.017,283.727C47.841,313.159,0,381.039,0,459.891v15h126.212l26.185-125.605L116.017,283.727z" fill="#2980b9"/>
	</g>
</g>
<g>
	<g>
		<path d="M267.538,283.728l-36.379,65.559l26.185,125.605h126.212v-15C383.554,381.039,335.713,313.159,267.538,283.728z     M298.444,393.891h-32v-30h32V393.891z" fill="#2980b9"/>
	</g>
</g>
<g>
</g>
<g>
</g>
<g>
</g>
<g>
</g>
<g>
</g>
<g>
</g>
<g>
</g>
<g>
</g>
<g>
</g>
<g>
</g>
<g>
</g>
<g>
</g>
<g>
</g>
<g>
</g>
<g>
</g>
</svg>
