<?xml version="1.0" encoding="iso-8859-1"?>
<!-- Generator: Adobe Illustrator 19.0.0, SVG Export Plug-In . SVG Version: 6.00 Build 0)  -->
<svg xmlns="http://www.w3.org/2000/svg" xmlns:xlink="http://www.w3.org/1999/xlink" version="1.1" id="Capa_1" x="0px" y="0px" viewBox="0 0 512 512" style="enable-background:new 0 0 512 512;" xml:space="preserve" width="512px" height="512px">
<g>
	<g>
		<path d="M0,210.954v61.966c0,27.523,22.424,49.914,49.986,49.914c8.667,0,16.823-2.217,23.936-6.107L91.4,164.547    c5.512-47.993,31.217-89.2,68.064-115.583C71.273,50.496,0,122.568,0,210.954z" fill="#2980b9"/>
	</g>
</g>
<g>
	<g>
		<path d="M352.536,48.965c36.847,26.383,62.552,67.59,68.064,115.583l17.478,152.18c7.113,3.891,15.269,6.107,23.936,6.107    c27.563,0,49.986-22.391,49.986-49.914v-61.966C512,122.568,440.727,50.497,352.536,48.965z" fill="#2980b9"/>
	</g>
</g>
<g>
	<g>
		<path d="M277.422,397.852L256,376.885l-21.422,20.967c-14.716,14.403-32.951,23.271-52.149,26.206    c15.625,24.014,42.698,39.928,73.422,39.928h0.299c30.724,0,57.798-15.914,73.422-39.929    C310.373,421.122,292.138,412.256,277.422,397.852z" fill="#2980b9"/>
	</g>
</g>
<g>
	<g>
		<path d="M408.863,325.552c-0.064-0.743-0.139-1.481-0.225-2.221L390.795,167.97C382.942,99.583,324.992,48.013,256,48.013    S129.059,99.583,121.205,167.97l-17.843,155.354c-0.085,0.742-0.161,1.492-0.227,2.239c-2.831,32.436,17.013,53.854,36.528,63.08    c20.025,9.466,49.964,11.226,73.93-12.23l22.748-22.265h-4.271c-16.569,0-30-13.431-30-30v-14.605c0-16.569,13.431-30,30-30    h47.857c16.568,0,30,13.431,30,30v14.605c0,16.569-13.432,30-30,30h-4.271l22.748,22.265    c23.965,23.455,53.903,21.697,73.931,12.23C391.852,379.417,411.695,357.999,408.863,325.552z M213.347,189.643    c0,8.284-6.716,15-15,15s-15-6.716-15-15v-28.115c0-8.284,6.716-15,15-15s15,6.716,15,15V189.643z M328.653,189.643    c0,8.284-6.716,15-15,15s-15-6.716-15-15v-28.115c0-8.284,6.716-15,15-15s15,6.716,15,15V189.643z" fill="#2980b9"/>
	</g>
</g>
<g>
</g>
<g>
</g>
<g>
</g>
<g>
</g>
<g>
</g>
<g>
</g>
<g>
</g>
<g>
</g>
<g>
</g>
<g>
</g>
<g>
</g>
<g>
</g>
<g>
</g>
<g>
</g>
<g>
</g>
</svg>
